<mxfile host="app.diagrams.net" modified="2021-05-28T07:09:27.971Z" agent="5.0 (Windows NT 10.0; Win64; x64) AppleWebKit/537.36 (KHTML, like Gecko) Chrome/90.0.4430.212 Safari/537.36" etag="MtjU9QhSQuEO7BPy0Ysz" version="14.7.2" type="github">
  <diagram id="6MzOuc9nKu9rWjtDpI3t" name="Page-1">
    <mxGraphModel dx="1038" dy="548" grid="1" gridSize="10" guides="1" tooltips="1" connect="1" arrows="1" fold="1" page="1" pageScale="1" pageWidth="827" pageHeight="1169" math="0" shadow="0">
      <root>
        <mxCell id="0" />
        <mxCell id="1" parent="0" />
        <mxCell id="I30aSDcxchosgeWx6I__-58" style="edgeStyle=orthogonalEdgeStyle;rounded=0;orthogonalLoop=1;jettySize=auto;html=1;entryX=0.435;entryY=0;entryDx=0;entryDy=0;entryPerimeter=0;" edge="1" parent="1" source="I30aSDcxchosgeWx6I__-1" target="I30aSDcxchosgeWx6I__-42">
          <mxGeometry relative="1" as="geometry" />
        </mxCell>
        <mxCell id="I30aSDcxchosgeWx6I__-1" value="" style="rounded=0;whiteSpace=wrap;html=1;" vertex="1" parent="1">
          <mxGeometry x="30" y="200" width="450" height="150" as="geometry" />
        </mxCell>
        <mxCell id="I30aSDcxchosgeWx6I__-2" value="&lt;p&gt;&lt;font style=&quot;font-size: 36px&quot; color=&quot;#3333ff&quot;&gt;Client&lt;/font&gt;&lt;/p&gt;" style="text;html=1;strokeColor=none;fillColor=none;align=center;verticalAlign=middle;whiteSpace=wrap;rounded=0;" vertex="1" parent="1">
          <mxGeometry x="20" y="100" width="150" height="40" as="geometry" />
        </mxCell>
        <mxCell id="I30aSDcxchosgeWx6I__-3" value="&lt;font style=&quot;font-size: 18px&quot;&gt;channel&amp;nbsp;&lt;/font&gt;" style="text;html=1;strokeColor=none;fillColor=none;align=center;verticalAlign=middle;whiteSpace=wrap;rounded=0;" vertex="1" parent="1">
          <mxGeometry x="30" y="170" width="90" height="20" as="geometry" />
        </mxCell>
        <mxCell id="I30aSDcxchosgeWx6I__-4" value="" style="rounded=0;whiteSpace=wrap;html=1;" vertex="1" parent="1">
          <mxGeometry x="40" y="215" width="420" height="115" as="geometry" />
        </mxCell>
        <mxCell id="I30aSDcxchosgeWx6I__-5" value="EventLoopGroup" style="ellipse;whiteSpace=wrap;html=1;" vertex="1" parent="1">
          <mxGeometry x="390" y="30" width="120" height="80" as="geometry" />
        </mxCell>
        <mxCell id="I30aSDcxchosgeWx6I__-6" value="&lt;font style=&quot;font-size: 18px&quot;&gt;PipeLine&lt;/font&gt;" style="text;html=1;strokeColor=none;fillColor=none;align=center;verticalAlign=middle;whiteSpace=wrap;rounded=0;" vertex="1" parent="1">
          <mxGeometry x="70" y="215" width="40" height="20" as="geometry" />
        </mxCell>
        <mxCell id="I30aSDcxchosgeWx6I__-10" value="" style="edgeStyle=orthogonalEdgeStyle;rounded=0;orthogonalLoop=1;jettySize=auto;html=1;" edge="1" parent="1" source="I30aSDcxchosgeWx6I__-8" target="I30aSDcxchosgeWx6I__-9">
          <mxGeometry relative="1" as="geometry" />
        </mxCell>
        <mxCell id="I30aSDcxchosgeWx6I__-8" value="handler" style="ellipse;whiteSpace=wrap;html=1;" vertex="1" parent="1">
          <mxGeometry x="75" y="235" width="60" height="40" as="geometry" />
        </mxCell>
        <mxCell id="I30aSDcxchosgeWx6I__-12" value="" style="edgeStyle=orthogonalEdgeStyle;rounded=0;orthogonalLoop=1;jettySize=auto;html=1;" edge="1" parent="1" source="I30aSDcxchosgeWx6I__-9" target="I30aSDcxchosgeWx6I__-11">
          <mxGeometry relative="1" as="geometry" />
        </mxCell>
        <mxCell id="I30aSDcxchosgeWx6I__-9" value="&lt;span&gt;handler&lt;/span&gt;" style="ellipse;whiteSpace=wrap;html=1;" vertex="1" parent="1">
          <mxGeometry x="205" y="235" width="60" height="40" as="geometry" />
        </mxCell>
        <mxCell id="I30aSDcxchosgeWx6I__-11" value="&lt;span&gt;handler&lt;/span&gt;" style="ellipse;whiteSpace=wrap;html=1;" vertex="1" parent="1">
          <mxGeometry x="355" y="235" width="60" height="40" as="geometry" />
        </mxCell>
        <mxCell id="I30aSDcxchosgeWx6I__-112" value="" style="edgeStyle=orthogonalEdgeStyle;rounded=0;orthogonalLoop=1;jettySize=auto;html=1;" edge="1" parent="1" source="I30aSDcxchosgeWx6I__-13" target="I30aSDcxchosgeWx6I__-17">
          <mxGeometry relative="1" as="geometry" />
        </mxCell>
        <mxCell id="I30aSDcxchosgeWx6I__-13" value="&lt;span&gt;handler&lt;/span&gt;" style="ellipse;whiteSpace=wrap;html=1;" vertex="1" parent="1">
          <mxGeometry x="350" y="280" width="70" height="40" as="geometry" />
        </mxCell>
        <mxCell id="I30aSDcxchosgeWx6I__-20" value="" style="edgeStyle=orthogonalEdgeStyle;rounded=0;orthogonalLoop=1;jettySize=auto;html=1;" edge="1" parent="1" source="I30aSDcxchosgeWx6I__-17" target="I30aSDcxchosgeWx6I__-18">
          <mxGeometry relative="1" as="geometry" />
        </mxCell>
        <mxCell id="I30aSDcxchosgeWx6I__-17" value="&lt;span&gt;handler&lt;/span&gt;" style="ellipse;whiteSpace=wrap;html=1;" vertex="1" parent="1">
          <mxGeometry x="205" y="280" width="70" height="40" as="geometry" />
        </mxCell>
        <mxCell id="I30aSDcxchosgeWx6I__-18" value="&lt;span&gt;handler&lt;/span&gt;" style="ellipse;whiteSpace=wrap;html=1;" vertex="1" parent="1">
          <mxGeometry x="75" y="280" width="70" height="40" as="geometry" />
        </mxCell>
        <mxCell id="I30aSDcxchosgeWx6I__-59" style="edgeStyle=orthogonalEdgeStyle;rounded=0;orthogonalLoop=1;jettySize=auto;html=1;" edge="1" parent="1" source="I30aSDcxchosgeWx6I__-22" target="I30aSDcxchosgeWx6I__-42">
          <mxGeometry relative="1" as="geometry" />
        </mxCell>
        <mxCell id="I30aSDcxchosgeWx6I__-22" value="" style="rounded=0;whiteSpace=wrap;html=1;" vertex="1" parent="1">
          <mxGeometry x="510" y="200" width="450" height="150" as="geometry" />
        </mxCell>
        <mxCell id="I30aSDcxchosgeWx6I__-23" value="&lt;font style=&quot;font-size: 18px&quot;&gt;channel&amp;nbsp;&lt;/font&gt;" style="text;html=1;strokeColor=none;fillColor=none;align=center;verticalAlign=middle;whiteSpace=wrap;rounded=0;" vertex="1" parent="1">
          <mxGeometry x="510" y="170" width="90" height="20" as="geometry" />
        </mxCell>
        <mxCell id="I30aSDcxchosgeWx6I__-24" value="" style="rounded=0;whiteSpace=wrap;html=1;" vertex="1" parent="1">
          <mxGeometry x="520" y="215" width="420" height="115" as="geometry" />
        </mxCell>
        <mxCell id="I30aSDcxchosgeWx6I__-25" value="&lt;font style=&quot;font-size: 18px&quot;&gt;PipeLine&lt;/font&gt;" style="text;html=1;strokeColor=none;fillColor=none;align=center;verticalAlign=middle;whiteSpace=wrap;rounded=0;" vertex="1" parent="1">
          <mxGeometry x="550" y="215" width="40" height="20" as="geometry" />
        </mxCell>
        <mxCell id="I30aSDcxchosgeWx6I__-26" value="" style="edgeStyle=orthogonalEdgeStyle;rounded=0;orthogonalLoop=1;jettySize=auto;html=1;" edge="1" parent="1" source="I30aSDcxchosgeWx6I__-27" target="I30aSDcxchosgeWx6I__-29">
          <mxGeometry relative="1" as="geometry" />
        </mxCell>
        <mxCell id="I30aSDcxchosgeWx6I__-27" value="handler" style="ellipse;whiteSpace=wrap;html=1;" vertex="1" parent="1">
          <mxGeometry x="555" y="235" width="60" height="40" as="geometry" />
        </mxCell>
        <mxCell id="I30aSDcxchosgeWx6I__-28" value="" style="edgeStyle=orthogonalEdgeStyle;rounded=0;orthogonalLoop=1;jettySize=auto;html=1;" edge="1" parent="1" source="I30aSDcxchosgeWx6I__-29" target="I30aSDcxchosgeWx6I__-30">
          <mxGeometry relative="1" as="geometry" />
        </mxCell>
        <mxCell id="I30aSDcxchosgeWx6I__-29" value="&lt;span&gt;handler&lt;/span&gt;" style="ellipse;whiteSpace=wrap;html=1;" vertex="1" parent="1">
          <mxGeometry x="685" y="235" width="60" height="40" as="geometry" />
        </mxCell>
        <mxCell id="I30aSDcxchosgeWx6I__-30" value="&lt;span&gt;handler&lt;/span&gt;" style="ellipse;whiteSpace=wrap;html=1;" vertex="1" parent="1">
          <mxGeometry x="835" y="235" width="60" height="40" as="geometry" />
        </mxCell>
        <mxCell id="I30aSDcxchosgeWx6I__-114" value="" style="edgeStyle=orthogonalEdgeStyle;rounded=0;orthogonalLoop=1;jettySize=auto;html=1;" edge="1" parent="1" source="I30aSDcxchosgeWx6I__-32" target="I30aSDcxchosgeWx6I__-34">
          <mxGeometry relative="1" as="geometry" />
        </mxCell>
        <mxCell id="I30aSDcxchosgeWx6I__-32" value="&lt;span&gt;handler&lt;/span&gt;" style="ellipse;whiteSpace=wrap;html=1;" vertex="1" parent="1">
          <mxGeometry x="830" y="280" width="70" height="40" as="geometry" />
        </mxCell>
        <mxCell id="I30aSDcxchosgeWx6I__-33" value="" style="edgeStyle=orthogonalEdgeStyle;rounded=0;orthogonalLoop=1;jettySize=auto;html=1;" edge="1" parent="1" source="I30aSDcxchosgeWx6I__-34" target="I30aSDcxchosgeWx6I__-35">
          <mxGeometry relative="1" as="geometry" />
        </mxCell>
        <mxCell id="I30aSDcxchosgeWx6I__-34" value="&lt;span&gt;handler&lt;/span&gt;" style="ellipse;whiteSpace=wrap;html=1;" vertex="1" parent="1">
          <mxGeometry x="685" y="280" width="70" height="40" as="geometry" />
        </mxCell>
        <mxCell id="I30aSDcxchosgeWx6I__-35" value="&lt;span&gt;handler&lt;/span&gt;" style="ellipse;whiteSpace=wrap;html=1;" vertex="1" parent="1">
          <mxGeometry x="555" y="280" width="70" height="40" as="geometry" />
        </mxCell>
        <mxCell id="I30aSDcxchosgeWx6I__-38" style="edgeStyle=orthogonalEdgeStyle;rounded=0;orthogonalLoop=1;jettySize=auto;html=1;entryX=0.555;entryY=-0.001;entryDx=0;entryDy=0;entryPerimeter=0;" edge="1" parent="1" source="I30aSDcxchosgeWx6I__-36" target="I30aSDcxchosgeWx6I__-1">
          <mxGeometry relative="1" as="geometry">
            <mxPoint x="280" y="190" as="targetPoint" />
          </mxGeometry>
        </mxCell>
        <mxCell id="I30aSDcxchosgeWx6I__-36" value="&lt;span&gt;EvenLoop&lt;/span&gt;" style="ellipse;whiteSpace=wrap;html=1;" vertex="1" parent="1">
          <mxGeometry x="355" y="90" width="90" height="40" as="geometry" />
        </mxCell>
        <mxCell id="I30aSDcxchosgeWx6I__-41" style="edgeStyle=orthogonalEdgeStyle;rounded=0;orthogonalLoop=1;jettySize=auto;html=1;entryX=0.5;entryY=0;entryDx=0;entryDy=0;" edge="1" parent="1" source="I30aSDcxchosgeWx6I__-37" target="I30aSDcxchosgeWx6I__-22">
          <mxGeometry relative="1" as="geometry" />
        </mxCell>
        <mxCell id="I30aSDcxchosgeWx6I__-37" value="EvenLoop" style="ellipse;whiteSpace=wrap;html=1;" vertex="1" parent="1">
          <mxGeometry x="445" y="90" width="90" height="40" as="geometry" />
        </mxCell>
        <mxCell id="I30aSDcxchosgeWx6I__-62" style="edgeStyle=orthogonalEdgeStyle;rounded=0;orthogonalLoop=1;jettySize=auto;html=1;entryX=0.472;entryY=0;entryDx=0;entryDy=0;entryPerimeter=0;" edge="1" parent="1" source="I30aSDcxchosgeWx6I__-42" target="I30aSDcxchosgeWx6I__-54">
          <mxGeometry relative="1" as="geometry">
            <Array as="points">
              <mxPoint x="472" y="490" />
              <mxPoint x="472" y="490" />
            </Array>
          </mxGeometry>
        </mxCell>
        <mxCell id="I30aSDcxchosgeWx6I__-42" value="&lt;font style=&quot;font-size: 18px&quot;&gt;Selecter&amp;nbsp; &amp;nbsp; &amp;nbsp; &amp;nbsp; &amp;nbsp;&amp;nbsp;&lt;/font&gt;" style="rounded=0;whiteSpace=wrap;html=1;align=center;" vertex="1" parent="1">
          <mxGeometry x="50" y="430" width="920" height="40" as="geometry" />
        </mxCell>
        <mxCell id="I30aSDcxchosgeWx6I__-45" value="EventLoopGroup" style="ellipse;whiteSpace=wrap;html=1;" vertex="1" parent="1">
          <mxGeometry x="415" y="585" width="120" height="80" as="geometry" />
        </mxCell>
        <mxCell id="I30aSDcxchosgeWx6I__-74" style="edgeStyle=orthogonalEdgeStyle;rounded=0;orthogonalLoop=1;jettySize=auto;html=1;entryX=0.58;entryY=-0.13;entryDx=0;entryDy=0;entryPerimeter=0;" edge="1" parent="1" source="I30aSDcxchosgeWx6I__-47" target="I30aSDcxchosgeWx6I__-67">
          <mxGeometry relative="1" as="geometry" />
        </mxCell>
        <mxCell id="I30aSDcxchosgeWx6I__-47" value="EvenLoop" style="ellipse;whiteSpace=wrap;html=1;" vertex="1" parent="1">
          <mxGeometry x="437" y="650" width="90" height="40" as="geometry" />
        </mxCell>
        <mxCell id="I30aSDcxchosgeWx6I__-51" value="EventLoopGroup" style="ellipse;whiteSpace=wrap;html=1;" vertex="1" parent="1">
          <mxGeometry x="421" y="900" width="120" height="80" as="geometry" />
        </mxCell>
        <mxCell id="I30aSDcxchosgeWx6I__-105" style="edgeStyle=orthogonalEdgeStyle;rounded=0;orthogonalLoop=1;jettySize=auto;html=1;entryX=0.903;entryY=-0.012;entryDx=0;entryDy=0;entryPerimeter=0;" edge="1" parent="1" source="I30aSDcxchosgeWx6I__-52" target="I30aSDcxchosgeWx6I__-77">
          <mxGeometry relative="1" as="geometry" />
        </mxCell>
        <mxCell id="I30aSDcxchosgeWx6I__-52" value="&lt;span&gt;EvenLoop&lt;/span&gt;" style="ellipse;whiteSpace=wrap;html=1;" vertex="1" parent="1">
          <mxGeometry x="391" y="960" width="90" height="40" as="geometry" />
        </mxCell>
        <mxCell id="I30aSDcxchosgeWx6I__-106" style="edgeStyle=orthogonalEdgeStyle;rounded=0;orthogonalLoop=1;jettySize=auto;html=1;entryX=0.035;entryY=-0.007;entryDx=0;entryDy=0;entryPerimeter=0;" edge="1" parent="1" source="I30aSDcxchosgeWx6I__-53" target="I30aSDcxchosgeWx6I__-91">
          <mxGeometry relative="1" as="geometry" />
        </mxCell>
        <mxCell id="I30aSDcxchosgeWx6I__-53" value="EvenLoop" style="ellipse;whiteSpace=wrap;html=1;" vertex="1" parent="1">
          <mxGeometry x="481" y="960" width="90" height="40" as="geometry" />
        </mxCell>
        <mxCell id="I30aSDcxchosgeWx6I__-54" value="&lt;font style=&quot;font-size: 18px&quot;&gt;MainReactor&lt;/font&gt;" style="text;html=1;align=center;verticalAlign=middle;resizable=0;points=[];autosize=1;strokeColor=none;" vertex="1" parent="1">
          <mxGeometry x="415" y="555" width="120" height="20" as="geometry" />
        </mxCell>
        <mxCell id="I30aSDcxchosgeWx6I__-55" value="&lt;font style=&quot;font-size: 18px&quot;&gt;SubReactor&lt;/font&gt;" style="text;html=1;align=center;verticalAlign=middle;resizable=0;points=[];autosize=1;strokeColor=none;" vertex="1" parent="1">
          <mxGeometry x="433" y="870" width="110" height="20" as="geometry" />
        </mxCell>
        <mxCell id="I30aSDcxchosgeWx6I__-60" value="connect" style="text;html=1;align=center;verticalAlign=middle;resizable=0;points=[];autosize=1;strokeColor=none;" vertex="1" parent="1">
          <mxGeometry x="451" y="400" width="60" height="20" as="geometry" />
        </mxCell>
        <mxCell id="I30aSDcxchosgeWx6I__-71" style="edgeStyle=orthogonalEdgeStyle;rounded=0;orthogonalLoop=1;jettySize=auto;html=1;entryX=0.471;entryY=-0.01;entryDx=0;entryDy=0;entryPerimeter=0;" edge="1" parent="1" source="I30aSDcxchosgeWx6I__-64" target="I30aSDcxchosgeWx6I__-68">
          <mxGeometry relative="1" as="geometry" />
        </mxCell>
        <mxCell id="I30aSDcxchosgeWx6I__-64" value="&lt;span style=&quot;color: rgb(51 , 51 , 51) ; font-family: &amp;#34;menlo&amp;#34; , &amp;#34;monaco&amp;#34; , &amp;#34;consolas&amp;#34; , &amp;#34;courier new&amp;#34; , monospace ; background-color: rgb(248 , 248 , 248)&quot;&gt;&lt;font style=&quot;font-size: 14px&quot;&gt;selectedKeys&lt;/font&gt;&lt;/span&gt;" style="text;html=1;align=center;verticalAlign=middle;resizable=0;points=[];autosize=1;strokeColor=none;" vertex="1" parent="1">
          <mxGeometry x="424" y="765" width="110" height="20" as="geometry" />
        </mxCell>
        <mxCell id="I30aSDcxchosgeWx6I__-69" style="edgeStyle=orthogonalEdgeStyle;rounded=0;orthogonalLoop=1;jettySize=auto;html=1;" edge="1" parent="1" source="I30aSDcxchosgeWx6I__-67" target="I30aSDcxchosgeWx6I__-64">
          <mxGeometry relative="1" as="geometry">
            <Array as="points">
              <mxPoint x="478" y="760" />
              <mxPoint x="479" y="760" />
            </Array>
          </mxGeometry>
        </mxCell>
        <mxCell id="I30aSDcxchosgeWx6I__-67" value="&lt;font style=&quot;font-size: 14px&quot;&gt;select&lt;/font&gt;" style="text;html=1;align=center;verticalAlign=middle;resizable=0;points=[];autosize=1;strokeColor=none;" vertex="1" parent="1">
          <mxGeometry x="453" y="720" width="50" height="20" as="geometry" />
        </mxCell>
        <mxCell id="I30aSDcxchosgeWx6I__-76" style="edgeStyle=orthogonalEdgeStyle;rounded=0;orthogonalLoop=1;jettySize=auto;html=1;entryX=0.453;entryY=-0.03;entryDx=0;entryDy=0;entryPerimeter=0;" edge="1" parent="1" source="I30aSDcxchosgeWx6I__-68" target="I30aSDcxchosgeWx6I__-55">
          <mxGeometry relative="1" as="geometry" />
        </mxCell>
        <mxCell id="I30aSDcxchosgeWx6I__-107" style="edgeStyle=orthogonalEdgeStyle;rounded=0;orthogonalLoop=1;jettySize=auto;html=1;" edge="1" parent="1" source="I30aSDcxchosgeWx6I__-68">
          <mxGeometry relative="1" as="geometry">
            <mxPoint x="680" y="480" as="targetPoint" />
          </mxGeometry>
        </mxCell>
        <mxCell id="I30aSDcxchosgeWx6I__-109" style="edgeStyle=orthogonalEdgeStyle;rounded=0;orthogonalLoop=1;jettySize=auto;html=1;" edge="1" parent="1" source="I30aSDcxchosgeWx6I__-68">
          <mxGeometry relative="1" as="geometry">
            <mxPoint x="280" y="480" as="targetPoint" />
          </mxGeometry>
        </mxCell>
        <mxCell id="I30aSDcxchosgeWx6I__-68" value="产生 新的channel" style="text;html=1;align=center;verticalAlign=middle;resizable=0;points=[];autosize=1;strokeColor=none;" vertex="1" parent="1">
          <mxGeometry x="428" y="805" width="110" height="20" as="geometry" />
        </mxCell>
        <mxCell id="I30aSDcxchosgeWx6I__-73" style="edgeStyle=orthogonalEdgeStyle;rounded=0;orthogonalLoop=1;jettySize=auto;html=1;entryX=0.483;entryY=0;entryDx=0;entryDy=0;entryPerimeter=0;" edge="1" parent="1" source="I30aSDcxchosgeWx6I__-72" target="I30aSDcxchosgeWx6I__-60">
          <mxGeometry relative="1" as="geometry" />
        </mxCell>
        <mxCell id="I30aSDcxchosgeWx6I__-72" value="register" style="text;html=1;align=center;verticalAlign=middle;resizable=0;points=[];autosize=1;strokeColor=none;" vertex="1" parent="1">
          <mxGeometry x="450" y="360" width="60" height="20" as="geometry" />
        </mxCell>
        <mxCell id="I30aSDcxchosgeWx6I__-77" value="" style="rounded=0;whiteSpace=wrap;html=1;" vertex="1" parent="1">
          <mxGeometry x="30" y="1060" width="450" height="150" as="geometry" />
        </mxCell>
        <mxCell id="I30aSDcxchosgeWx6I__-78" value="&lt;font style=&quot;font-size: 18px&quot;&gt;channel&amp;nbsp;&lt;/font&gt;" style="text;html=1;strokeColor=none;fillColor=none;align=center;verticalAlign=middle;whiteSpace=wrap;rounded=0;" vertex="1" parent="1">
          <mxGeometry x="30" y="1030" width="90" height="20" as="geometry" />
        </mxCell>
        <mxCell id="I30aSDcxchosgeWx6I__-79" value="" style="rounded=0;whiteSpace=wrap;html=1;" vertex="1" parent="1">
          <mxGeometry x="40" y="1075" width="420" height="115" as="geometry" />
        </mxCell>
        <mxCell id="I30aSDcxchosgeWx6I__-80" value="&lt;font style=&quot;font-size: 18px&quot;&gt;PipeLine&lt;/font&gt;" style="text;html=1;strokeColor=none;fillColor=none;align=center;verticalAlign=middle;whiteSpace=wrap;rounded=0;" vertex="1" parent="1">
          <mxGeometry x="70" y="1075" width="40" height="20" as="geometry" />
        </mxCell>
        <mxCell id="I30aSDcxchosgeWx6I__-81" value="" style="edgeStyle=orthogonalEdgeStyle;rounded=0;orthogonalLoop=1;jettySize=auto;html=1;" edge="1" parent="1" source="I30aSDcxchosgeWx6I__-82" target="I30aSDcxchosgeWx6I__-84">
          <mxGeometry relative="1" as="geometry" />
        </mxCell>
        <mxCell id="I30aSDcxchosgeWx6I__-82" value="handler" style="ellipse;whiteSpace=wrap;html=1;" vertex="1" parent="1">
          <mxGeometry x="75" y="1095" width="60" height="40" as="geometry" />
        </mxCell>
        <mxCell id="I30aSDcxchosgeWx6I__-83" value="" style="edgeStyle=orthogonalEdgeStyle;rounded=0;orthogonalLoop=1;jettySize=auto;html=1;" edge="1" parent="1" source="I30aSDcxchosgeWx6I__-84" target="I30aSDcxchosgeWx6I__-85">
          <mxGeometry relative="1" as="geometry" />
        </mxCell>
        <mxCell id="I30aSDcxchosgeWx6I__-84" value="&lt;span&gt;handler&lt;/span&gt;" style="ellipse;whiteSpace=wrap;html=1;" vertex="1" parent="1">
          <mxGeometry x="205" y="1095" width="60" height="40" as="geometry" />
        </mxCell>
        <mxCell id="I30aSDcxchosgeWx6I__-85" value="&lt;span&gt;handler&lt;/span&gt;" style="ellipse;whiteSpace=wrap;html=1;" vertex="1" parent="1">
          <mxGeometry x="355" y="1095" width="60" height="40" as="geometry" />
        </mxCell>
        <mxCell id="I30aSDcxchosgeWx6I__-115" value="" style="edgeStyle=orthogonalEdgeStyle;rounded=0;orthogonalLoop=1;jettySize=auto;html=1;" edge="1" parent="1" source="I30aSDcxchosgeWx6I__-87" target="I30aSDcxchosgeWx6I__-89">
          <mxGeometry relative="1" as="geometry" />
        </mxCell>
        <mxCell id="I30aSDcxchosgeWx6I__-87" value="&lt;span&gt;handler&lt;/span&gt;" style="ellipse;whiteSpace=wrap;html=1;" vertex="1" parent="1">
          <mxGeometry x="350" y="1140" width="70" height="40" as="geometry" />
        </mxCell>
        <mxCell id="I30aSDcxchosgeWx6I__-88" value="" style="edgeStyle=orthogonalEdgeStyle;rounded=0;orthogonalLoop=1;jettySize=auto;html=1;" edge="1" parent="1" source="I30aSDcxchosgeWx6I__-89" target="I30aSDcxchosgeWx6I__-90">
          <mxGeometry relative="1" as="geometry" />
        </mxCell>
        <mxCell id="I30aSDcxchosgeWx6I__-89" value="&lt;span&gt;handler&lt;/span&gt;" style="ellipse;whiteSpace=wrap;html=1;" vertex="1" parent="1">
          <mxGeometry x="205" y="1140" width="70" height="40" as="geometry" />
        </mxCell>
        <mxCell id="I30aSDcxchosgeWx6I__-90" value="&lt;span&gt;handler&lt;/span&gt;" style="ellipse;whiteSpace=wrap;html=1;" vertex="1" parent="1">
          <mxGeometry x="75" y="1140" width="70" height="40" as="geometry" />
        </mxCell>
        <mxCell id="I30aSDcxchosgeWx6I__-91" value="" style="rounded=0;whiteSpace=wrap;html=1;" vertex="1" parent="1">
          <mxGeometry x="511" y="1060" width="450" height="150" as="geometry" />
        </mxCell>
        <mxCell id="I30aSDcxchosgeWx6I__-92" value="&lt;font style=&quot;font-size: 18px&quot;&gt;channel&amp;nbsp;&lt;/font&gt;" style="text;html=1;strokeColor=none;fillColor=none;align=center;verticalAlign=middle;whiteSpace=wrap;rounded=0;" vertex="1" parent="1">
          <mxGeometry x="871" y="1030" width="90" height="20" as="geometry" />
        </mxCell>
        <mxCell id="I30aSDcxchosgeWx6I__-93" value="" style="rounded=0;whiteSpace=wrap;html=1;" vertex="1" parent="1">
          <mxGeometry x="521" y="1075" width="420" height="115" as="geometry" />
        </mxCell>
        <mxCell id="I30aSDcxchosgeWx6I__-94" value="&lt;font style=&quot;font-size: 18px&quot;&gt;PipeLine&lt;/font&gt;" style="text;html=1;strokeColor=none;fillColor=none;align=center;verticalAlign=middle;whiteSpace=wrap;rounded=0;" vertex="1" parent="1">
          <mxGeometry x="551" y="1075" width="40" height="20" as="geometry" />
        </mxCell>
        <mxCell id="I30aSDcxchosgeWx6I__-95" value="" style="edgeStyle=orthogonalEdgeStyle;rounded=0;orthogonalLoop=1;jettySize=auto;html=1;" edge="1" parent="1" source="I30aSDcxchosgeWx6I__-96" target="I30aSDcxchosgeWx6I__-98">
          <mxGeometry relative="1" as="geometry" />
        </mxCell>
        <mxCell id="I30aSDcxchosgeWx6I__-96" value="handler" style="ellipse;whiteSpace=wrap;html=1;" vertex="1" parent="1">
          <mxGeometry x="556" y="1095" width="60" height="40" as="geometry" />
        </mxCell>
        <mxCell id="I30aSDcxchosgeWx6I__-97" value="" style="edgeStyle=orthogonalEdgeStyle;rounded=0;orthogonalLoop=1;jettySize=auto;html=1;" edge="1" parent="1" source="I30aSDcxchosgeWx6I__-98" target="I30aSDcxchosgeWx6I__-99">
          <mxGeometry relative="1" as="geometry" />
        </mxCell>
        <mxCell id="I30aSDcxchosgeWx6I__-98" value="&lt;span&gt;handler&lt;/span&gt;" style="ellipse;whiteSpace=wrap;html=1;" vertex="1" parent="1">
          <mxGeometry x="686" y="1095" width="60" height="40" as="geometry" />
        </mxCell>
        <mxCell id="I30aSDcxchosgeWx6I__-99" value="&lt;span&gt;handler&lt;/span&gt;" style="ellipse;whiteSpace=wrap;html=1;" vertex="1" parent="1">
          <mxGeometry x="836" y="1095" width="60" height="40" as="geometry" />
        </mxCell>
        <mxCell id="I30aSDcxchosgeWx6I__-100" style="edgeStyle=orthogonalEdgeStyle;rounded=0;orthogonalLoop=1;jettySize=auto;html=1;entryX=1;entryY=0.5;entryDx=0;entryDy=0;" edge="1" parent="1" source="I30aSDcxchosgeWx6I__-101" target="I30aSDcxchosgeWx6I__-103">
          <mxGeometry relative="1" as="geometry">
            <Array as="points">
              <mxPoint x="731" y="1160" />
              <mxPoint x="731" y="1160" />
            </Array>
          </mxGeometry>
        </mxCell>
        <mxCell id="I30aSDcxchosgeWx6I__-116" value="" style="edgeStyle=orthogonalEdgeStyle;rounded=0;orthogonalLoop=1;jettySize=auto;html=1;" edge="1" parent="1" source="I30aSDcxchosgeWx6I__-101" target="I30aSDcxchosgeWx6I__-103">
          <mxGeometry relative="1" as="geometry" />
        </mxCell>
        <mxCell id="I30aSDcxchosgeWx6I__-101" value="&lt;span&gt;handler&lt;/span&gt;" style="ellipse;whiteSpace=wrap;html=1;" vertex="1" parent="1">
          <mxGeometry x="831" y="1140" width="70" height="40" as="geometry" />
        </mxCell>
        <mxCell id="I30aSDcxchosgeWx6I__-102" value="" style="edgeStyle=orthogonalEdgeStyle;rounded=0;orthogonalLoop=1;jettySize=auto;html=1;" edge="1" parent="1" source="I30aSDcxchosgeWx6I__-103" target="I30aSDcxchosgeWx6I__-104">
          <mxGeometry relative="1" as="geometry" />
        </mxCell>
        <mxCell id="I30aSDcxchosgeWx6I__-103" value="&lt;span&gt;handler&lt;/span&gt;" style="ellipse;whiteSpace=wrap;html=1;" vertex="1" parent="1">
          <mxGeometry x="686" y="1140" width="70" height="40" as="geometry" />
        </mxCell>
        <mxCell id="I30aSDcxchosgeWx6I__-104" value="&lt;span&gt;handler&lt;/span&gt;" style="ellipse;whiteSpace=wrap;html=1;" vertex="1" parent="1">
          <mxGeometry x="556" y="1140" width="70" height="40" as="geometry" />
        </mxCell>
      </root>
    </mxGraphModel>
  </diagram>
</mxfile>
